<?xml version="1.0" encoding="iso-8859-1"?>
<!-- Uploaded to: SVG Repo, www.svgrepo.com, Generator: SVG Repo Mixer Tools -->
<svg height="800px" width="800px" version="1.1" id="Capa_1" xmlns="http://www.w3.org/2000/svg" xmlns:xlink="http://www.w3.org/1999/xlink" 
	 viewBox="0 0 18.939 18.939" xml:space="preserve">
<g>
	<path style="fill:#030104;" d="M14.202,17.343h-0.175V6.169h0.175c0.441,0,0.799-0.357,0.799-0.798s-0.357-0.798-0.799-0.798H11.33
		c0.526-0.481,0.859-1.169,0.859-1.938C12.189,1.18,11.009,0,9.553,0C8.098,0,6.918,1.18,6.918,2.635
		c0,0.77,0.333,1.457,0.859,1.938h-3.04c-0.441,0-0.798,0.357-0.798,0.798c0,0.44,0.357,0.798,0.798,0.798H5.08v8.902v2.271H4.738
		c-0.441,0-0.798,0.357-0.798,0.799s0.357,0.798,0.798,0.798h9.463c0.441,0,0.799-0.356,0.799-0.798S14.644,17.343,14.202,17.343z
		 M11.809,6.512h0.85v1.665l-6.21,5.214V10.93L11.809,6.512z M6.449,9.216V6.511h3.394L6.449,9.216z M12.658,9.9v2.86l-4.859,3.992
		l-1.351,0.009v-1.647L12.658,9.9z M12.658,14.442v2.332H9.627L12.658,14.442z"/>
</g>
</svg>