<?xml version="1.0" encoding="utf-8"?><!DOCTYPE svg PUBLIC "-//W3C//DTD SVG 1.1//EN" "http://www.w3.org/Graphics/SVG/1.1/DTD/svg11.dtd"><svg viewBox="0 0 800 800" xmlns="http://www.w3.org/2000/svg" xmlns:xlink="http://www.w3.org/1999/xlink"><style>:root>svg{display:none}:root>svg:target{display:block}</style><svg fill="none" viewBox="0 0 17 9" id="arrow" xmlns="http://www.w3.org/2000/svg"><path d="m1 1 7.5 7L16 1"/></svg><svg viewBox="0 0 20 20" id="attention" xmlns="http://www.w3.org/2000/svg"><circle cx="10" cy="10" r="10"/><path d="M9.05 12.43 8.532 6.2h3.164l-.532 6.23H9.05Zm1.064 3.696c-.467 0-.85-.145-1.148-.434a1.393 1.393 0 0 1-.448-1.036c0-.41.15-.751.448-1.022.299-.28.681-.42 1.148-.42.467 0 .845.14 1.134.42.299.27.448.611.448 1.022 0 .401-.15.747-.448 1.036-.29.29-.667.434-1.134.434Z" fill="#fff"/></svg><svg viewBox="0 0 48 48" fill="none" id="barber_1" xmlns="http://www.w3.org/2000/svg"><path d="M29.796 24H16.204s-3.986 7.708 2.549 10.833c4.182 2.5-2.549 9.167-2.549 9.167h13.592s-6.73-7.292-2.548-9.167C33.782 31.708 29.796 24 29.796 24Z" fill="#2F88FF" stroke="#000" stroke-width="4" stroke-linecap="round" stroke-linejoin="round"/><path d="m37 10-7 14H16L9 10s3-6 14-6 14 6 14 6ZM25 24l2-12M21 24l-2-12" stroke="#000" stroke-width="4" stroke-linecap="round" stroke-linejoin="round"/></svg><svg viewBox="0 0 48 48" fill="none" id="barber_2" xmlns="http://www.w3.org/2000/svg"><path d="M10 8h28v9l-5 7v12s0 8-9 8-9-8-9-8V24l-5-7V8ZM15 4v6M21 4v6M27 4v6" stroke="#000" stroke-width="4" stroke-linecap="round" stroke-linejoin="round"/><rect x="21" y="28" width="6" height="10" rx="3" fill="#2F88FF" stroke="#000" stroke-width="4" stroke-linecap="round" stroke-linejoin="round"/><path d="M10 17h28M33 4v6" stroke="#000" stroke-width="4" stroke-linecap="round" stroke-linejoin="round"/></svg><svg viewBox="0 0 157 256" xml:space="preserve" id="barber_3" xmlns="http://www.w3.org/2000/svg"><path d="M129.7 31.6h-37c-6.6-.1-6.4 9.8 0 9.8h36.9v4.9H92.9c-6.7 0-6.5 9.8 0 9.8h36.8V61.2H92.9c-6.7 0-6.5 9.9 0 9.9h36.8V76H92.9c-6.6 0-6.5 9.8 0 9.8h36.8v4.9H92.9c-6.6 0-6.6 9.9 0 9.8h36.8v5H92.9c-6.6-.1-6.6 9.8 0 9.8h36.8v4.9H92.9c-6.6 0-6.6 9.8 0 9.8h36.8v4.9H92.9c-6.6 0-6.5 9.9 0 9.9h36.8v95.5c-.1 14.6 22.2 14.4 22.2 0V16.9c0-6.6-5.5-15-14.6-15l-44.6-.1c-6.6.1-6.4 9.9 0 9.9h36.9v4.9H92.7c-6.6 0-6.4 9.9 0 9.8h36.9v5.2h.1zM87 224.6c-1.3 8.1 1.5 22.6 7.2 27.9 6 5.5 13.1-1.5 10.2-7.2-3-5.6-6.7-8.7-3.6-22.1L87 224.6z"/><path d="M75.2 177.5v-65.1L62.9 5.3c-.4-2.9-2.1-3.6-3.8-3.6-1.6 0-3.4.6-3.7 3.6l-12 107.1v65.1c-22.7-11.8-39.7 6.6-39.8 23.3.1 14.9 11.1 27.2 26.8 27.2 15.7-.1 26.4-13.8 26.4-27.2v-65.4h5v65.4c0 15.5 12.6 27 26 27 16.9 0 27.6-11.9 27.6-26.9.1-16.9-17.5-35.2-40.2-23.4zm-45.1 36.9c-7.4 0-13.3-6-13.4-13.4.1-7.3 6-13.3 13.4-13.3s13.4 5.9 13.4 13.3-6 13.4-13.4 13.4zm58.8 0c-7.3 0-13.3-6-13.3-13.4 0-7.3 5.9-13.3 13.3-13.3s13.4 5.9 13.4 13.3-5.9 13.4-13.4 13.4z"/></svg><svg viewBox="0 0 50 50" id="barber_4" xmlns="http://www.w3.org/2000/svg"><path d="M25 2c-9.645 0-12.938 10.613-12.969 10.719l-.125.406 6.375 10.906c.028.016.035.02.063.032.261.066 1.105.226 2.125.406h.031c1.043.183 2.293.379 3.375.468L21.406 7.282c-.074-.547-.593-.957-1.125-.875-.547.074-.949.578-.875 1.125l2.25 16.157-3.718-12.657a1.016 1.016 0 0 0-1.25-.687 1.016 1.016 0 0 0-.688 1.25l2.75 9.281-4.656-8C14.746 11.105 17.809 4 25 4c7.148 0 10.234 7.094 10.906 8.906l-4.562 7.813 2.625-9.063a1.015 1.015 0 0 0-.688-1.25 1.015 1.015 0 0 0-1.25.688L28.25 24.156l2.281-16.718c.074-.547-.328-1.051-.875-1.125-.535-.079-1.05.328-1.125.875l-2.406 17.75c2.09-.176 4.777-.704 5.531-.875l.063-.032 6.375-10.906-.125-.438C37.934 12.579 34.508 2 25 2Zm0 3a1 1 0 0 0-1 1v18.969c.355.027.695.031 1 .031.305 0 .645-.004 1-.031V6a1 1 0 0 0-1-1Zm6.156 21.188C29.625 26.495 26.88 27 25 27c-1.766 0-4.473-.465-6.063-.781C18.078 27.336 17 29.102 17 31c0 1.813 1.008 4.102 1.906 6.125.305.684.657 1.46.875 2.063.89.265 2.977.812 5.219.812a1 1 0 1 1 0 2c-2.367 0-4.512-.5-5.594-.813a22.66 22.66 0 0 1-.906 1.188C17.637 43.441 17 44.199 17 45c0 2.465 6.414 3 8 3 1.586 0 8-.535 8-3 0-.8-.637-1.559-1.5-2.625-.566-.7-1.5-1.883-1.5-2.375 0-.438.613-1.79 1.094-2.875C31.992 35.102 33 32.812 33 31c0-1.914-1.023-3.695-1.844-4.813Z"/></svg><svg viewBox="0 0 459.946 459.946" xml:space="preserve" id="barber_5" xmlns="http://www.w3.org/2000/svg"><path d="M208.821 221.661a18.23 18.23 0 0 0 7.944 12.264l75.312 49.741c5.923 3.912 12.867 2.076 19.089-1.506 2.547-1.466 15.749-9.668 59.798-38.777L435 252.881c8.011 1.189 15.478-4.345 16.667-12.361 1.189-8.016-4.345-15.478-12.361-16.667l-69.587-10.321a14.664 14.664 0 0 0-10.235 2.268l-30.486 20.12-3.771-2.939-27.305 17.413c-6.068 3.87-13.74 3.208-19.048-1.075l-37.963-30.727 43.118 19.079a12.23 12.23 0 0 0 11.522-.872l41.189-26.267c5.694-3.631 7.366-11.191 3.735-16.885-3.63-5.694-11.19-7.365-16.884-3.735l-35.661 22.743-37.123-16.426 31.57 4.859 1.066-.68-26.345-20.538c-7.941-6.191-19.397-4.772-25.587 3.169l-19.073 24.466a18.21 18.21 0 0 0-3.617 14.156zM165.081 181.891c.023-1.228.242-2.458.661-3.651a11.557 11.557 0 0 1 5.94-6.632l10.95-5.259c5.9-2.834 12.809-.199 15.522 5.45l8.376 17.441c.301.626.529 1.268.709 1.915a27.055 27.055 0 0 0 3.484-3.69c9.164-11.755 7.064-28.714-4.691-37.878s-28.714-7.064-37.878 4.691c-6.378 8.181-7.294 18.881-3.302 27.721l.229-.108z"/><path d="M442.913 302.746c6.597 2.389 13.883-1.023 16.271-7.621 2.389-6.597-1.023-13.882-7.62-16.271l-64.74-23.44a12.706 12.706 0 0 0-11.167 1.24l-73.38 46.898-123.569-81.27c-5.863-3.856-13.74-2.229-17.596 3.633-3.856 5.863-2.229 13.74 3.634 17.596l130.451 85.796a12.702 12.702 0 0 0 13.823.091l7.487-4.785 26.022 55.048h-40.435c-7.017 0-12.704 5.688-12.704 12.705 0 7.016 5.688 12.705 12.704 12.705h143.121c7.017 0 12.704-5.688 12.704-12.705s-5.688-12.705-12.704-12.705h-35.067l-39.153-89.871 13.068-8.352 58.85 21.308zM181.473 196.157l1.996 4.157a1.8 1.8 0 0 0 2.403.844l10.95-5.259a1.801 1.801 0 0 0 .844-2.403l-8.376-17.441a1.8 1.8 0 0 0-2.403-.844l-10.951 5.259a1.802 1.802 0 0 0-.844 2.403l1.996 4.157-7.201 3.458a25.582 25.582 0 0 1 1.732 10.4l9.854-4.731z"/><circle cx="83.371" cy="83.427" r="28.552"/><path d="m147.896 186.098-57.058-8.402-25.115-31.743 26.253 19.889 5.111.753 1.481-18.021c.945-11.501-7.612-21.592-19.113-22.537l-37.138-3.053c-11.501-.946-21.592 7.612-22.537 19.113l-6.599 107.027 8.752 57.064L.597 384.013c-2.431 8.869 2.787 18.029 11.656 20.461 8.874 2.431 18.03-2.792 20.461-11.656l22.275-81.245c.618-2.255.755-4.615.4-6.927l-8.085-52.717 6.478.533 19.862 54.155-16.592 78.35c-2.19 10.342 5.697 20.104 16.306 20.104 7.699 0 14.614-5.371 16.273-13.204l17.584-83.036a16.651 16.651 0 0 0-.657-9.183l-16.671-45.454 2.97-36.127-13.239-1.95c-4.45-.655-12.542-.835-16.455-9.505L43.96 163.171l28.53 36.06a13.875 13.875 0 0 0 8.86 5.118l62.503 9.204c7.592 1.116 14.634-4.133 15.749-11.706 1.117-7.581-4.125-14.632-11.706-15.749z"/></svg><svg viewBox="0 0 503.607 503.607" xml:space="preserve" id="barber_6" xmlns="http://www.w3.org/2000/svg"><path d="M436.459 235.016h-33.574c-18.466 0-33.574 15.108-33.574 33.574s15.108 33.574 33.574 33.574h7.582c-3.328 16.966-16.601 29.97-33.712 32.927-4.04-19.026-20.629-32.927-41.017-32.927h-75.541v-8.393h100.721v-83.934c0-36.931-30.216-67.148-67.148-67.148h-33.574v-16.787h58.754V83.934c0-34.088-25.749-62.434-58.754-66.6V8.393c0-5.036-3.357-8.393-8.393-8.393s-8.393 3.357-8.393 8.393v8.941c-33.005 4.166-58.754 32.512-58.754 66.6v41.967h58.754v16.787h-33.574c-36.931 0-67.148 30.216-67.148 67.148v83.934H243.41v8.393h-75.541c-20.388 0-36.978 13.901-41.017 32.927-17.111-2.957-30.384-15.961-33.712-32.927h7.582c18.466 0 33.574-15.108 33.574-33.574 0-18.466-15.108-33.574-33.574-33.574H67.148c-18.466 0-33.574 15.108-33.574 33.574s15.108 33.574 33.574 33.574h8.986c3.659 26.178 24.208 46.511 50.492 49.859 3.604 19.613 20.447 34.076 41.243 34.076h58.754v16.787h-8.393v48.776c-12.703 7.393-21.92 20.174-24.462 35.159h-51.079c-5.036 0-8.393 3.357-8.393 8.393s3.357 8.393 8.393 8.393h218.23c5.036 0 8.393-3.357 8.393-8.393s-3.357-8.393-8.393-8.393H309.84c-2.542-14.985-11.759-27.765-24.462-35.159v-48.776h-8.393v-16.787h58.754c20.796 0 37.638-14.463 41.243-34.076 26.284-3.348 46.833-23.681 50.492-49.859h8.986c18.466 0 33.574-15.108 33.574-33.574-.001-18.464-15.109-33.573-33.575-33.573zM201.443 83.934c0-27.698 22.662-50.361 50.361-50.361s50.361 22.662 50.361 50.361v25.18H201.443v-25.18zm-41.968 125.902c0-27.698 22.662-50.361 50.361-50.361h83.934c27.698 0 50.361 22.662 50.361 50.361v67.148H159.475v-67.148zM50.361 268.59c0-9.233 7.554-16.787 16.787-16.787h33.574c9.233 0 16.787 7.554 16.787 16.787s-7.554 16.787-16.787 16.787H67.148c-9.233 0-16.787-7.554-16.787-16.787zm160.314 218.23c4.197-14.269 16.787-25.18 31.895-25.18h16.787c15.948 0 29.377 10.911 32.734 25.18h-81.416zm32.735-41.968h-8.393v-25.18h33.574v25.18H243.41zm16.787-41.967H243.41v-16.787h16.787v16.787zm75.541-33.574H167.869c-14.269 0-25.18-10.911-25.18-25.18s10.911-25.18 25.18-25.18h167.869c14.269 0 25.18 10.911 25.18 25.18s-10.911 25.18-25.18 25.18zm100.721-83.934h-33.574c-9.233 0-16.787-7.554-16.787-16.787s7.554-16.787 16.787-16.787h33.574c9.233 0 16.787 7.554 16.787 16.787s-7.554 16.787-16.787 16.787z"/></svg><svg viewBox="0 0 18.939 18.939" xml:space="preserve" id="barber_7" xmlns="http://www.w3.org/2000/svg"><path style="fill:#030104" d="M14.202 17.343h-.175V6.169h.175a.798.798 0 1 0 0-1.596H11.33a2.618 2.618 0 0 0 .859-1.938 2.636 2.636 0 0 0-5.271 0c0 .77.333 1.457.859 1.938h-3.04a.798.798 0 1 0 0 1.596h.343V17.342h-.342a.798.798 0 1 0 0 1.597h9.463a.798.798 0 1 0 .001-1.596zM11.809 6.512h.85v1.665l-6.21 5.214V10.93l5.36-4.418zm-5.36 2.704V6.511h3.394L6.449 9.216zm6.209.684v2.86l-4.859 3.992-1.351.009v-1.647l6.21-5.214zm0 4.542v2.332H9.627l3.031-2.332z"/></svg><svg viewBox="0 0 503.795 503.795" xml:space="preserve" id="barber_8" xmlns="http://www.w3.org/2000/svg"><path d="m445.013 489.15-225.53-225.53 23.738-23.737 225.53 225.53z"/><path d="M486.605 364.555 246.267 124.217c3.064-2.728 5.791-5.699 7.781-9.124l7-11.994c5.993-10.282 7.16-21.865 3.181-31.769-6.438-15.99-23.779-25.524-47.591-26.146-13.522-.411-27.757 2.149-40.742 6.967-.21-.747-.445-1.486-.445-2.275a8.05 8.05 0 0 1 2.392-5.766c4.868-4.818 7.579-11.507 7.462-18.348-.117-6.941-3.005-13.362-8.125-18.079-4.742-4.373-10.97-6.631-17.618-6.329-7.235.319-14.235 3.651-19.213 9.132-16.921 18.625-19.624 45.811-7.756 67.475C54.527 137.437-20.368 264.79 5.048 448.859c2.249 16.418 10.777 30.98 23.997 41.002 10.903 8.259 23.904 12.607 37.334 12.607 2.871 0 5.75-.201 8.637-.596 16.426-2.266 30.98-10.794 40.994-24.014s14.277-29.545 12.003-45.971c-11.717-84.942 15.99-201.224 81.039-273.651l57.915 57.898-11.877 11.877 89.231 89.231v-18.264a8.396 8.396 0 0 1 8.393-8.393 8.396 8.396 0 0 1 8.393 8.393v35.051l16.787 16.787v-18.264c0-4.633 3.76-8.393 8.393-8.393s8.393 3.76 8.393 8.393v35.051l16.787 16.787v-18.264c0-4.633 3.76-8.393 8.393-8.393s8.393 3.76 8.393 8.393v35.051l16.787 16.787v-17.836a8.39 8.39 0 0 1 8.393-8.393 8.39 8.39 0 0 1 8.393 8.393v34.623l18.793 18.793 5.985-5.985c11.079-11.088 17.19-25.827 17.19-41.497.001-15.68-6.11-30.419-17.189-41.507zM67.336 468.885c-18.516 0-33.574-15.058-33.574-33.574s15.058-33.574 33.574-33.574 33.574 15.058 33.574 33.574c-.001 18.517-15.058 33.574-33.574 33.574zM149.449 66.16c-1.066.672-2.115 1.36-3.164 2.048-7.411-15.167-5.12-33.658 6.488-46.441 1.964-2.157 4.776-3.517 7.537-3.643.126 0 .252-.008.394-.008 1.469 0 3.425.369 5.103 1.914a8.318 8.318 0 0 1 2.711 6.035c.05 2.317-.839 4.482-2.484 6.119-4.734 4.684-7.353 10.953-7.369 17.651a25.14 25.14 0 0 0 1.796 9.451 83.438 83.438 0 0 0-3.651 2.182l-7.361 4.692zm39.592 66.988c-16.199 0-29.377-13.178-29.377-29.377s13.178-29.377 29.377-29.377 29.377 13.178 29.377 29.377-13.178 29.377-29.377 29.377z"/><path d="M67.336 418.525c-9.258 0-16.787 7.529-16.787 16.787s7.529 16.787 16.787 16.787 16.787-7.529 16.787-16.787c-.001-9.258-7.529-16.787-16.787-16.787zM189.041 91.18c-6.941 0-12.59 5.649-12.59 12.59s5.649 12.59 12.59 12.59 12.59-5.649 12.59-12.59-5.649-12.59-12.59-12.59z"/></svg><svg viewBox="0 0 512 512" xml:space="preserve" id="barber_9" xmlns="http://www.w3.org/2000/svg"><path d="M443.733 238.933H409.6c-18.773 0-34.133 15.36-34.133 34.133 0 18.773 15.36 34.133 34.133 34.133h7.68c-3.413 17.067-17.067 30.72-34.133 33.28-4.267-18.773-21.333-33.28-41.813-33.28h-76.8v-8.533h102.4v-85.333c0-37.547-30.72-68.267-68.267-68.267h-34.133V128h59.733V85.333c0-34.987-26.453-63.147-59.733-67.413V8.533C264.533 3.413 261.12 0 256 0c-5.12 0-8.533 3.413-8.533 8.533v9.387c-33.28 4.267-59.733 33.28-59.733 67.413V128h59.733v17.067h-34.133c-37.547 0-68.267 30.72-68.267 68.267v85.333h102.4v8.533h-76.8c-20.48 0-37.547 14.507-41.813 33.28-17.067-3.413-30.72-16.213-34.133-33.28h7.68c18.773 0 34.133-15.36 34.133-34.133 0-18.773-15.36-34.133-34.133-34.133H68.267c-18.773 0-34.133 15.36-34.133 34.133 0 18.773 15.36 34.133 34.133 34.133h9.387c3.413 26.453 24.747 46.933 51.2 50.347 3.413 19.627 21.333 34.987 41.813 34.987H230.4V409.6h-8.533v49.493c-12.8 7.68-22.187 20.48-24.747 35.84h-52.053c-5.12 0-8.533 3.413-8.533 8.533s3.413 8.533 8.533 8.533H366.934c5.12 0 8.533-3.413 8.533-8.533s-3.413-8.533-8.533-8.533H314.88c-2.56-15.36-11.947-28.16-24.747-35.84V409.6H281.6v-17.067h59.733c20.48 0 38.4-15.36 41.813-34.987 26.453-3.413 47.787-23.893 51.2-50.347h9.387c18.773 0 34.133-15.36 34.133-34.133.001-18.773-15.359-34.133-34.133-34.133zm-196.266 153.6h17.067V409.6h-17.067v-17.067zm50.346 102.4H215.04c3.413-14.507 17.067-25.6 33.28-25.6h17.067c15.36 0 28.16 11.094 32.426 25.6z"/></svg><svg viewBox="0 0 25 25" id="calculation" xmlns="http://www.w3.org/2000/svg"><g clip-path="url(#la)"><path d="M16.58 0c-4.23 0-7.54 1.99-7.54 4.52v2.6c-.49-.06-.99-.09-1.51-.09-4.23 0-7.54 1.99-7.54 4.52v8.04c0 2.53 3.31 4.52 7.54 4.52 3.43 0 6.26-1.31 7.2-3.16.6.09 1.21.15 1.84.15 4.23 0 7.54-1.99 7.54-4.52V4.52C24.11 1.99 20.8 0 16.57 0h.01Zm0 2.01c3.16 0 5.53 1.33 5.53 2.51 0 1.18-2.36 2.51-5.53 2.51-3.17 0-5.53-1.33-5.53-2.51 0-1.18 2.36-2.51 5.53-2.51ZM7.54 9.04c3.16 0 5.53 1.33 5.53 2.51 0 1.18-2.36 2.51-5.53 2.51-3.17 0-5.53-1.33-5.53-2.51 0-1.18 2.36-2.51 5.53-2.51Zm-5.53 5.61c1.37.88 3.32 1.42 5.53 1.42 2.21 0 4.16-.55 5.53-1.42v.92c0 1.19-2.36 2.51-5.53 2.51-3.17 0-5.53-1.33-5.53-2.51v-.92Zm5.53 7.45c-3.16 0-5.53-1.33-5.53-2.51v-.92c1.37.88 3.32 1.42 5.53 1.42 2.21 0 4.16-.55 5.53-1.42v.92c0 1.19-2.36 2.51-5.53 2.51Zm9.04-3.01c-.52 0-1.02-.05-1.51-.12v-1.99c.49.06.99.1 1.51.1 2.21 0 4.16-.55 5.53-1.42v.92c0 1.19-2.36 2.51-5.53 2.51Zm0-4.02c-.52 0-1.02-.05-1.51-.12v-1.99c.49.06.99.1 1.51.1 2.21 0 4.16-.55 5.53-1.42v.92c0 1.19-2.36 2.51-5.53 2.51Zm0-4.02c-.54 0-1.07-.05-1.59-.13-.2-.89-.81-1.69-1.73-2.33 1 .29 2.12.45 3.31.45 2.21 0 4.16-.55 5.53-1.42v.92c0 1.19-2.36 2.51-5.53 2.51h.01Z"/></g><defs><clipPath id="la"><path fill="#fff" d="M0 0h24.11v24.11H0z"/></clipPath></defs></svg><svg viewBox="0 0 25 25" id="clients" xmlns="http://www.w3.org/2000/svg"><path d="M12.06 24.11C5.4 24.11 0 18.72 0 12.06 0 5.4 5.4 0 12.06 0s12.06 5.4 12.06 12.06-5.4 12.05-12.06 12.06v-.01Zm0-22.1c-5.55 0-10.05 4.5-10.05 10.05 0 5.55 4.5 10.05 10.05 10.05 5.55 0 10.05-4.5 10.05-10.05 0-5.55-4.5-10.04-10.05-10.05Zm5.69 13.81c.41-.37.45-1 .08-1.42-.37-.41-1-.45-1.42-.08a7.59 7.59 0 0 1-4.36 1.76 7.55 7.55 0 0 1-4.35-1.75 1.01 1.01 0 0 0-1.42.08c-.37.41-.33 1.05.08 1.42 1.6 1.36 3.6 2.16 5.69 2.26 2.1-.11 4.1-.9 5.69-2.26l.01-.01ZM6.03 10.05c0 1 .9 1 2.01 1 1.11 0 2.01 0 2.01-1a2.01 2.01 0 0 0-4.02 0Zm8.04 0c0 1 .9 1 2.01 1 1.11 0 2.01 0 2.01-1a2.01 2.01 0 0 0-4.02 0Z"/></svg><svg viewBox="0 0 24 24" id="discord" xmlns="http://www.w3.org/2000/svg"><path d="M20.317 4.37a19.791 19.791 0 0 0-4.885-1.515.074.074 0 0 0-.079.037c-.21.375-.444.864-.608 1.25a18.27 18.27 0 0 0-5.487 0 12.64 12.64 0 0 0-.617-1.25.077.077 0 0 0-.079-.037A19.736 19.736 0 0 0 3.677 4.37a.07.07 0 0 0-.032.027C.533 9.046-.32 13.58.099 18.057a.082.082 0 0 0 .031.057 19.9 19.9 0 0 0 5.993 3.03.078.078 0 0 0 .084-.028 14.09 14.09 0 0 0 1.226-1.994.076.076 0 0 0-.041-.106 13.107 13.107 0 0 1-1.872-.892.077.077 0 0 1-.008-.128 10.2 10.2 0 0 0 .372-.292.074.074 0 0 1 .077-.01c3.928 1.793 8.18 1.793 12.062 0a.074.074 0 0 1 .078.01c.12.098.246.198.373.292a.077.077 0 0 1-.006.127 12.299 12.299 0 0 1-1.873.892.077.077 0 0 0-.041.107c.36.698.772 1.362 1.225 1.993a.076.076 0 0 0 .084.028 19.839 19.839 0 0 0 6.002-3.03.077.077 0 0 0 .032-.054c.5-5.177-.838-9.674-3.549-13.66a.061.061 0 0 0-.031-.03zM8.02 15.33c-1.183 0-2.157-1.085-2.157-2.419 0-1.333.956-2.419 2.157-2.419 1.21 0 2.176 1.096 2.157 2.42 0 1.333-.956 2.418-2.157 2.418zm7.975 0c-1.183 0-2.157-1.085-2.157-2.419 0-1.333.955-2.419 2.157-2.419 1.21 0 2.176 1.096 2.157 2.42 0 1.333-.946 2.418-2.157 2.418z"/></svg><svg viewBox="0 0 64 64" id="github" xmlns="http://www.w3.org/2000/svg"><path fill="currentColor" d="M32 0C14 0 0 14 0 32c0 21 19 30 22 30 2 0 2-1 2-2v-5c-7 2-10-2-11-5 0 0 0-1-2-3-1-1-5-3-1-3 3 0 5 4 5 4 3 4 7 3 9 2 0-2 2-4 2-4-8-1-14-4-14-15 0-4 1-7 3-9 0 0-2-4 0-9 0 0 5 0 9 4 3-2 13-2 16 0 4-4 9-4 9-4 2 7 0 9 0 9 2 2 3 5 3 9 0 11-7 14-14 15 1 1 2 3 2 6v8c0 1 0 2 2 2 3 0 22-9 22-30C64 14 50 0 32 0Z"/></svg><svg fill="none" viewBox="0 0 11 11" id="plus" xmlns="http://www.w3.org/2000/svg"><circle cx="5.5" cy="5.5" r="5" stroke="#000"/><path stroke="#000" stroke-linecap="round" d="M5.5 2.5v6M8.5 5.5h-6"/></svg><svg viewBox="0 0 32 32" id="settings" xmlns="http://www.w3.org/2000/svg"><g clip-path="url(#qa)"><path d="M16 10.667a5.333 5.333 0 1 0 0 10.666 5.333 5.333 0 0 0 0-10.666Zm0 8a2.667 2.667 0 1 1 0-5.334 2.667 2.667 0 0 1 0 5.334Z"/><path d="m28.392 18.533-.592-.341c.267-1.45.267-2.937 0-4.387l.592-.341a4.002 4.002 0 0 0-4-6.933l-.593.342A11.97 11.97 0 0 0 20 4.684V4a4 4 0 1 0-8 0v.684a11.969 11.969 0 0 0-3.797 2.195l-.596-.346a4.002 4.002 0 0 0-4 6.934l.592.341a12.134 12.134 0 0 0 0 4.387l-.592.341a4.002 4.002 0 1 0 4 6.933l.593-.342a11.97 11.97 0 0 0 3.8 2.189V28a4 4 0 1 0 8 0v-.684a11.97 11.97 0 0 0 3.797-2.195l.596.344a4.002 4.002 0 1 0 4-6.933l-.001.001ZM24.995 13.5a9.398 9.398 0 0 1 0 5 1.333 1.333 0 0 0 .618 1.51l1.446.835a1.334 1.334 0 1 1-1.334 2.31l-1.448-.837a1.334 1.334 0 0 0-1.62.22 9.311 9.311 0 0 1-4.324 2.5 1.333 1.333 0 0 0-1.001 1.292V28a1.333 1.333 0 0 1-2.667 0v-1.67a1.333 1.333 0 0 0-1.001-1.291 9.312 9.312 0 0 1-4.323-2.506 1.333 1.333 0 0 0-1.62-.22l-1.445.836a1.332 1.332 0 0 1-1.997-.978 1.333 1.333 0 0 1 .664-1.331l1.445-.835a1.333 1.333 0 0 0 .619-1.51 9.397 9.397 0 0 1 0-5 1.333 1.333 0 0 0-.62-1.506l-1.446-.834a1.334 1.334 0 1 1 1.334-2.311l1.448.837a1.333 1.333 0 0 0 1.618-.214 9.312 9.312 0 0 1 4.324-2.5 1.333 1.333 0 0 0 1.002-1.298V4a1.333 1.333 0 1 1 2.666 0v1.67a1.334 1.334 0 0 0 1.002 1.291 9.313 9.313 0 0 1 4.324 2.506 1.333 1.333 0 0 0 1.62.22l1.445-.836a1.333 1.333 0 1 1 1.333 2.309l-1.445.835a1.334 1.334 0 0 0-.617 1.505v-.001Z"/></g><defs><clipPath id="qa"><path fill="#fff" d="M0 0h32v32H0z"/></clipPath></defs></svg><svg viewBox="0 0 22 22" id="statistic" xmlns="http://www.w3.org/2000/svg"><path d="M21.03 20.12H4.56c-1.52 0-2.74-1.23-2.74-2.74V.91C1.82.4 1.41 0 .91 0S0 .41 0 .91v16.46c0 2.52 2.05 4.57 4.57 4.57h16.46c.51 0 .91-.41.91-.91s-.41-.91-.91-.91Z"/><path d="M5.48 18.29c.51 0 .91-.41.91-.91v-6.4c0-.51-.41-.91-.91-.91s-.91.41-.91.91v6.4c0 .51.41.91.91.91ZM9.14 9.15v8.23c0 .51.41.91.91.91s.91-.41.91-.91V9.15c0-.51-.41-.91-.91-.91s-.91.41-.91.91ZM13.71 11.89v5.49c0 .51.41.91.91.91s.91-.41.91-.91v-5.49c0-.51-.41-.91-.91-.91s-.91.41-.91.91ZM18.28 8.23v9.15c0 .51.41.91.91.91s.91-.41.91-.91V8.23c0-.51-.41-.91-.91-.91s-.91.41-.91.91ZM5.48 8.23c.24 0 .48-.1.65-.27l3.28-3.28c.36-.34.93-.34 1.29 0l1.99 1.99a2.746 2.746 0 0 0 3.88 0l5.11-5.11c.35-.36.34-.94-.02-1.29a.918.918 0 0 0-1.27 0l-5.11 5.11c-.36.36-.94.36-1.29 0L12 3.39a2.746 2.746 0 0 0-3.88 0L4.84 6.67c-.36.36-.36.94 0 1.29.17.17.4.27.65.27h-.01Z"/></svg><svg viewBox="0 0 32 32" id="symbol" xmlns="http://www.w3.org/2000/svg"><path fill-rule="evenodd" clip-rule="evenodd" d="M17.143 0h-2.286v10.12L11.066.738l-2.12.856 3.89 9.627-7.342-7.342-1.616 1.616 7.037 7.037-9.12-3.984-.914 2.094 9.649 4.216H0v2.286h10.53L.88 21.359l.916 2.094 9.119-3.984-7.037 7.037 1.616 1.616 7.342-7.342-3.89 9.627 2.12.856 3.791-9.384V32h2.286V21.88l3.791 9.383 2.12-.856-3.89-9.627 7.342 7.342 1.616-1.616-7.037-7.037 9.12 3.984.914-2.094-9.649-4.216H32v-2.286H21.47l9.65-4.216-.916-2.094-9.119 3.984 7.037-7.037-1.616-1.616-7.342 7.342 3.89-9.627-2.12-.856-3.791 9.383V0Z"/></svg><svg viewBox="0 0 24 24" id="telegram" xmlns="http://www.w3.org/2000/svg"><path d="M12 0C5.373 0 0 5.373 0 12s5.373 12 12 12 12-5.373 12-12S18.627 0 12 0zm5.894 8.221-1.97 9.28c-.145.658-.537.818-1.084.508l-3-2.21-1.446 1.394a.759.759 0 0 1-.6.295h-.005l.213-3.054 5.56-5.022c.24-.213-.054-.334-.373-.121L8.32 13.617l-2.96-.924c-.64-.203-.658-.64.135-.954l11.566-4.458c.538-.196 1.006.128.832.941z"/></svg><svg style="enable-background:new 0 0 97.75 97.75" xml:space="preserve" viewBox="0 0 97.75 97.75" id="vk" xmlns="http://www.w3.org/2000/svg"><path d="M48.875 0C21.883 0 0 21.882 0 48.875S21.883 97.75 48.875 97.75 97.75 75.868 97.75 48.875 75.867 0 48.875 0zm24.792 54.161c2.278 2.225 4.688 4.319 6.733 6.774.906 1.086 1.76 2.209 2.41 3.472.928 1.801.09 3.776-1.522 3.883l-10.013-.002c-2.586.214-4.644-.829-6.379-2.597-1.385-1.409-2.67-2.914-4.004-4.371-.545-.598-1.119-1.161-1.803-1.604-1.365-.888-2.551-.616-3.333.81-.797 1.451-.979 3.059-1.055 4.674-.109 2.361-.821 2.978-3.19 3.089-5.062.237-9.865-.531-14.329-3.083-3.938-2.251-6.986-5.428-9.642-9.025-5.172-7.012-9.133-14.708-12.692-22.625-.801-1.783-.215-2.737 1.752-2.774 3.268-.063 6.536-.055 9.804-.003 1.33.021 2.21.782 2.721 2.037 1.766 4.345 3.931 8.479 6.644 12.313.723 1.021 1.461 2.039 2.512 2.76 1.16.796 2.044.533 2.591-.762.35-.823.501-1.703.577-2.585.26-3.021.291-6.041-.159-9.05-.28-1.883-1.339-3.099-3.216-3.455-.956-.181-.816-.535-.351-1.081.807-.944 1.563-1.528 3.074-1.528l11.313-.002c1.783.35 2.183 1.15 2.425 2.946l.01 12.572c-.021.695.349 2.755 1.597 3.21 1 .33 1.66-.472 2.258-1.105 2.713-2.879 4.646-6.277 6.377-9.794.764-1.551 1.423-3.156 2.063-4.764.476-1.189 1.216-1.774 2.558-1.754l10.894.013c.321 0 .647.003.965.058 1.836.314 2.339 1.104 1.771 2.895-.894 2.814-2.631 5.158-4.329 7.508-1.82 2.516-3.761 4.944-5.563 7.471-1.656 2.31-1.525 3.473.531 5.479z"/></svg><svg viewBox="0 0 25 25" id="workers" xmlns="http://www.w3.org/2000/svg"><path d="M12.06 16.08a4.02 4.02 0 1 1 0-8.04 4.02 4.02 0 0 1 0 8.04Zm0-6.03a2.01 2.01 0 1 0 0 4.02 2.01 2.01 0 0 0 0-4.02Zm6.03 13.06a6.03 6.03 0 0 0-12.06 0c0 .55.45 1 1 1s1-.45 1-1a4.02 4.02 0 0 1 8.04 0c0 .55.45 1 1 1s1-.45 1-1h.02Zm0-15.07a4.02 4.02 0 1 1 0-8.04 4.02 4.02 0 0 1 0 8.04Zm0-6.03a2.01 2.01 0 1 0 0 4.02 2.01 2.01 0 0 0 0-4.02Zm6.03 13.06c0-3.33-2.7-6.03-6.03-6.03-.55 0-1 .45-1 1s.45 1 1 1c2.22 0 4.02 1.8 4.02 4.02 0 .55.45 1 1 1s1-.45 1-1l.01.01ZM6.03 8.04a4.02 4.02 0 1 1 0-8.04 4.02 4.02 0 0 1 0 8.04Zm0-6.03a2.01 2.01 0 1 0 0 4.02 2.01 2.01 0 0 0 0-4.02ZM2.01 15.07c0-2.22 1.8-4.02 4.02-4.02.55 0 1-.45 1-1s-.45-1-1-1A6.03 6.03 0 0 0 0 15.08c0 .55.45 1 1 1s1-.45 1-1l.01-.01Z"/></svg></svg>